<svg viewBox="0 0 16 16" xmlns="http://www.w3.org/2000/svg"><path d="m13.9 6-.4-.7v-.1c.9-2 .8-2.1.7-2.3l-1.2-1.2s-.1-.1-.2-.1-.3 0-2 .8h-.1l-.7-.3v-.1c-.9-2-1-2-1.2-2h-1.7c-.2 0-.3 0-1.1 2.1v.1l-.7.2h-.1c-1.2-.5-1.9-.8-2.1-.8-.1 0-.2 0-.2.1l-1.2 1.3c-.1.2-.2.2.7 2.2v.1l-.2.7h-.1c-2.1.8-2.1.9-2.1 1.1v1.7c0 .3 0 .4 2.1 1.2h.1l.3.7v.1c-.9 2-.8 2.1-.7 2.3l1.2 1.2s.1.1.2.1.3 0 2-.8h.1l.7.2v.1c.8 2.1.9 2.1 1.1 2.1h1.7c.2 0 .3 0 1.1-2.1v-.1l.7-.3h.1c1.2.5 1.9.8 2.1.8.1 0 .2 0 .2-.1l1.2-1.2c.2-.2.2-.2-.7-2.2v-.1l.3-.7h.1c2.1-.9 2.1-1 2.1-1.2v-1.7c0-.2 0-.3-2.1-1.1m-5.9 5c-1.7 0-3-1.3-3-3s1.3-3 3-3 3 1.3 3 3-1.3 3-3 3"/></svg>