<svg viewBox="0 0 16 16" xmlns="http://www.w3.org/2000/svg"><path d="m13.24991 10.58566c-.00761-.9057-1.0397-5.10311-1.61136-3.59629-.69927 1.84293-1.93571 1.649-1.93571 1.649.96768-2.69671-.18274-6.2076-1.9399-8.06537-1.88294-1.99038-.47894 1.62315-2.2891 4.43613-1.48158 2.30355-2.89971 3.34824-2.706 6.3259a3.84268 3.84268 0 0 0 2.60477 3.56571c-.34622-1.469-.92751-3.3478-.56632-4.825a3.68665 3.68665 0 0 1 3.033-2.609c-1.54669 3.02253 1.6027 4.69386 1.42119 7.43982a6.98615 6.98615 0 0 1 -.13893 1.09344c2.23729-.46853 4.14345-3.63762 4.12836-5.41434z"/></svg>